<svg width="104" height="105" viewBox="0 0 104 105" fill="none" xmlns="http://www.w3.org/2000/svg">
<path d="M9.18438 88.658C10.0559 88.6582 10.916 88.47 11.6993 88.1078C12.4826 87.7455 13.1684 87.2187 13.7046 86.5674L18.2849 80.9398L71.2636 14.5054C72.0794 13.5144 73.1681 12.7562 74.4095 12.3142C75.6509 11.8721 76.997 11.7636 78.2993 12.0003C79.6017 12.2371 80.8098 12.8101 81.7906 13.6562C82.7714 14.5022 83.4868 15.5885 83.8579 16.7953C82.6929 16.3152 81.3927 16.2156 80.1615 16.5121C78.9303 16.8085 77.8379 17.4842 77.0558 18.4331L72.4673 24.0607L19.4968 90.4977C18.6809 91.4887 17.5923 92.2469 16.3509 92.689C15.1095 93.131 13.7634 93.2395 12.461 93.0028C11.1587 92.766 9.95054 92.193 8.96974 91.3469C7.98895 90.5009 7.27358 89.4146 6.90244 88.2078C7.62207 88.5061 8.39895 88.6603 9.18438 88.6606V88.658Z" fill="#00B131"/>
<path d="M97.3557 85.9182L97.312 85.6982L84.038 17.4035C83.7825 16.167 83.1719 15.0213 82.2734 14.0928C81.3749 13.1642 80.2234 12.4888 78.9459 12.141C77.6683 11.7931 76.3142 11.7863 75.0328 12.1214C73.7514 12.4565 72.5926 13.1203 71.6838 14.0399C72.4784 14.0814 73.2558 14.276 73.9685 14.6117C74.7461 14.9857 75.4234 15.5229 75.9489 16.1825C76.4744 16.842 76.8343 17.6065 77.0011 18.4178L78.3932 25.4038L90.447 86.446L90.5507 86.5728C91.3332 87.5212 92.4258 88.1964 93.657 88.4924C94.8882 88.7884 96.1882 88.6883 97.3529 88.208C97.3256 88.2908 97.2956 88.3736 97.2656 88.4668C97.5473 87.6453 97.5757 86.7647 97.3475 85.9285L97.3557 85.9182Z" fill="#00B131"/>
<path d="M13.5653 86.5598L14.8701 79.5738L27.3498 17.6648L26.9131 17.6105L26.6783 17.5794L24.915 15.9882L21.7623 15.3284L20.3975 16.7954L11.2206 61.6844L6.60214 85.1497C6.37968 86.3885 6.52222 87.6616 7.01406 88.8286C7.5059 89.9956 8.32796 91.0113 9.38971 91.7639C10.4515 92.5164 11.7117 92.9767 13.0317 93.0938C14.3517 93.211 15.6802 92.9806 16.8709 92.4281C15.7113 91.9358 14.7572 91.0922 14.1584 90.03C13.5595 88.9678 13.35 87.7472 13.5626 86.5598H13.5653Z" fill="#00B131"/>
<path d="M95.0712 88.658C94.1996 88.6582 93.3395 88.47 92.5563 88.1078C91.773 87.7455 91.0872 87.2187 90.551 86.5674L85.9734 80.9398L32.992 14.5054C32.1761 13.5144 31.0875 12.7562 29.8461 12.3142C28.6046 11.8721 27.2586 11.7636 25.9562 12.0003C24.6538 12.2371 23.4457 12.8101 22.4649 13.6562C21.4841 14.5022 20.7687 15.5886 20.3975 16.7954C21.5625 16.3154 22.8628 16.2156 24.094 16.5121C25.3252 16.8085 26.4177 17.4842 27.1998 18.4331L31.78 24.0607L84.756 90.4977C85.5719 91.4887 86.6605 92.2469 87.9019 92.689C89.1433 93.131 90.4894 93.2395 91.7918 93.0028C93.0941 92.766 94.3023 92.193 95.2831 91.3469C96.2639 90.5009 96.9792 89.4146 97.3504 88.2078C96.6307 88.5061 95.8539 88.6603 95.0684 88.6606L95.0712 88.658Z" fill="#00B131"/>
</svg>
